<svg width="76" height="75" viewBox="0 0 76 75" fill="none" xmlns="http://www.w3.org/2000/svg">
<circle cx="46.5" cy="45.5" r="29.5" fill="#FF6600"/>
<path d="M33.54 45.682C33.54 43.534 33.948 41.908 34.764 40.804C35.592 39.7 36.774 39.148 38.31 39.148C39.954 39.148 41.16 39.694 41.928 40.786C42.708 41.866 43.098 43.498 43.098 45.682C43.098 47.818 42.684 49.45 41.856 50.578C41.028 51.694 39.846 52.252 38.31 52.252C37.494 52.252 36.786 52.102 36.186 51.802C35.586 51.49 35.088 51.052 34.692 50.488C34.308 49.912 34.02 49.222 33.828 48.418C33.636 47.602 33.54 46.69 33.54 45.682ZM36.132 45.682C36.132 47.062 36.3 48.154 36.636 48.958C36.972 49.75 37.53 50.146 38.31 50.146C39.102 50.146 39.666 49.786 40.002 49.066C40.338 48.346 40.506 47.218 40.506 45.682C40.506 44.998 40.464 44.386 40.38 43.846C40.308 43.294 40.188 42.826 40.02 42.442C39.852 42.058 39.624 41.764 39.336 41.56C39.06 41.356 38.718 41.254 38.31 41.254C37.53 41.254 36.972 41.632 36.636 42.388C36.3 43.132 36.132 44.23 36.132 45.682ZM52.7068 42.514C52.7068 43.114 52.5868 43.72 52.3468 44.332C52.1068 44.944 51.8008 45.544 51.4288 46.132C51.0688 46.708 50.6608 47.272 50.2048 47.824C49.7608 48.376 49.3228 48.886 48.8908 49.354L47.8648 50.092V50.182L49.2508 49.894H52.9768V52H44.7508V50.74C45.0628 50.428 45.4108 50.08 45.7948 49.696C46.1908 49.3 46.5868 48.88 46.9828 48.436C47.3788 47.992 47.7628 47.536 48.1348 47.068C48.5188 46.588 48.8548 46.114 49.1428 45.646C49.4308 45.178 49.6648 44.722 49.8448 44.278C50.0248 43.822 50.1148 43.402 50.1148 43.018C50.1148 42.562 49.9768 42.178 49.7008 41.866C49.4248 41.542 48.9508 41.38 48.2788 41.38C47.8588 41.38 47.4328 41.47 47.0008 41.65C46.5688 41.818 46.1968 42.04 45.8848 42.316L44.8408 40.516C45.3568 40.132 45.9328 39.808 46.5688 39.544C47.2048 39.28 47.9668 39.148 48.8548 39.148C49.4068 39.148 49.9168 39.22 50.3848 39.364C50.8648 39.508 51.2728 39.718 51.6088 39.994C51.9568 40.27 52.2268 40.624 52.4188 41.056C52.6108 41.476 52.7068 41.962 52.7068 42.514ZM55.0975 50.776C55.0975 50.332 55.2415 49.984 55.5295 49.732C55.8175 49.48 56.1955 49.354 56.6635 49.354C57.1435 49.354 57.5275 49.48 57.8155 49.732C58.1035 49.984 58.2475 50.332 58.2475 50.776C58.2475 51.196 58.1035 51.538 57.8155 51.802C57.5275 52.066 57.1435 52.198 56.6635 52.198C56.1955 52.198 55.8175 52.066 55.5295 51.802C55.2415 51.538 55.0975 51.196 55.0975 50.776Z" fill="white"/>
<circle cx="8" cy="22" r="8" fill="#FF6600"/>
<circle cx="32.5" cy="3.5" r="3.5" fill="#FF6600"/>
</svg>
